<svg width="338" height="353" viewBox="0 0 338 353" fill="none" xmlns="http://www.w3.org/2000/svg">
<path d="M218.876 275.384C219.89 276.443 219.478 278.296 218.105 278.759C136.774 305.963 48.7672 262.18 21.7061 180.118C20.9456 177.801 20.9456 175.22 21.7061 172.893C29.5541 149.098 42.7255 128.249 59.6044 111.415C60.2487 110.776 61.2732 110.798 61.8964 111.449L107.336 158.905C107.653 159.236 107.769 159.699 107.664 160.151C95.876 208.082 138.802 252.759 184.516 240.613C185.034 240.47 185.52 240.569 185.9 240.966C189.682 244.905 211.725 267.916 218.876 275.384Z" fill="#AFAFAF"/>
<path d="M260.683 256.653C286.096 237.988 305.901 211.656 316.305 180.085C317.065 177.768 317.065 175.231 316.305 172.915C295.264 109.077 236.072 66.1873 169 66.1873C142.816 66.1873 117.867 72.773 95.8971 84.5544L39.1554 25.2945C35.0254 20.9813 28.3499 20.9813 24.22 25.2945C20.0901 29.6077 20.0901 36.5795 24.22 40.8927L298.845 327.705C302.975 332.018 309.65 332.018 313.78 327.705C317.91 323.392 317.91 316.42 313.78 312.107L260.683 256.653ZM169 110.312C203.951 110.312 232.375 139.997 232.375 176.5C232.375 190.774 227.981 203.968 220.598 214.789L132.338 122.612C142.7 114.901 155.332 110.312 169 110.312Z" fill="#AFAFAF"/>
</svg>
