<svg width="23" height="23" viewBox="0 0 23 23" fill="none" xmlns="http://www.w3.org/2000/svg">
<path d="M21.8072 10.1264C18.6063 10.1248 15.4053 10.1256 12.2044 10.126C12.2048 11.427 12.2028 12.7281 12.2052 14.0287C14.0589 14.0283 15.9127 14.028 17.7661 14.0287C17.5513 15.2755 16.7952 16.4156 15.723 17.1175C15.049 17.5616 14.2746 17.8498 13.4762 17.9869C12.6727 18.1213 11.8424 18.1385 11.0409 17.9795C10.2258 17.8201 9.4478 17.4873 8.76905 17.0182C7.68374 16.271 6.85547 15.1778 6.4302 13.9474C5.99535 12.696 5.99215 11.3035 6.43219 10.0533C6.73751 9.17213 7.2457 8.35815 7.91328 7.69574C8.73674 6.86964 9.80732 6.27909 10.9608 6.03692C11.9485 5.83031 12.9899 5.86974 13.9569 6.15642C14.7788 6.40095 15.5365 6.84228 16.157 7.42308C16.7844 6.8118 17.4086 6.19702 18.0347 5.58461C18.3632 5.25496 18.7083 4.93975 19.0264 4.60113C18.0754 3.73869 16.9606 3.04543 15.7425 2.60718C13.5495 1.81628 11.0764 1.79949 8.86868 2.54828C6.38076 3.38295 4.26232 5.20619 3.08775 7.51067C2.67882 8.30474 2.38026 9.1523 2.20091 10.0241C1.74972 12.1961 2.0642 14.5119 3.08655 16.4902C3.75098 17.7815 4.70356 18.9294 5.85905 19.8293C6.94917 20.6812 8.2198 21.3104 9.567 21.6616C11.2669 22.1084 13.0764 22.0982 14.7876 21.7167C16.334 21.3679 17.7972 20.6437 18.9654 19.5868C20.2002 18.4748 21.081 17.0097 21.5474 15.4352C22.056 13.7179 22.1261 11.8844 21.8072 10.1264Z" fill="white"/>
</svg>
