<svg width="23" height="23" viewBox="0 0 23 23" fill="none" xmlns="http://www.w3.org/2000/svg">
<path d="M3 19.5329C3 19.7844 3.20168 20 3.43697 20H6.56303C6.79832 20 7 19.7844 7 19.5329V8.46707C7 8.21557 6.79832 8 6.56303 8H3.43697C3.20168 8 3 8.21557 3 8.46707V19.5329Z" fill="white"/>
<path d="M17.125 8C15.5 8 14.3444 8.64286 13.7306 9.32143C13.5861 9.46429 13.3333 9.35714 13.3333 9.14286V8.57143C13.3333 8.32143 13.1167 8.10714 12.8639 8.10714H9.46944C9.21667 8.10714 9 8.32143 9 8.57143C9.03611 10.6071 9 17.6429 9 19.5357C9 19.7857 9.21667 20 9.46944 20H12.9C13.1528 20 13.3694 19.7857 13.3694 19.5357V13.5714C13.3694 13.2143 13.3694 12.8571 13.4778 12.6071C13.7667 11.8929 14.4167 11.1429 15.5361 11.1429C17.0167 11.1429 17.7028 12.25 17.7028 13.8571V19.5357C17.7028 19.7857 17.9194 20 18.1722 20H21.5306C21.7833 20 22 19.7857 22 19.5357V13.3929C21.9639 9.71429 19.8333 8 17.125 8Z" fill="white"/>
<path d="M4.96667 7C6.23333 7 7 6.11927 7 5.01835C6.96667 3.84404 6.23333 3 5 3C3.76667 3 3 3.84404 3 4.98165C3 6.11927 3.76667 7 4.96667 7Z" fill="white"/>
</svg>
