<svg width="20" height="24" viewBox="0 0 20 24" fill="none" xmlns="http://www.w3.org/2000/svg">
<path d="M18 10H14H6V7.20002C6 5.10002 7.5 3.20002 9.6 3.00002C12 2.80002 14 4.70002 14 7.00002C14 7.60002 14.4 8.00002 15 8.00002H16C16.6 8.00002 17 7.60002 17 7.00002C17 3.20002 14 0.100024 10.2 2.35522e-05C6.3 -0.0999765 3 3.10002 3 7.00002V10H2C0.9 10 0 10.9 0 12V19C0 21.8 2.2 24 5 24H15C17.8 24 20 21.8 20 19V12C20 10.9 19.1 10 18 10ZM11 17.7V19C11 19.5 10.5 20 10 20C9.5 20 9 19.5 9 19V17.7C8.4 17.4 8 16.7 8 16C8 14.9 8.9 14 10 14C11.1 14 12 14.9 12 16C12 16.7 11.6 17.4 11 17.7Z" fill="#AFAFAF"/>
</svg>
