<svg width="24" height="24" viewBox="0 0 24 24" fill="none" xmlns="http://www.w3.org/2000/svg">
<path d="M16 12C16 13.0609 15.5786 14.0783 14.8284 14.8284C14.0783 15.5786 13.0609 16 12 16C10.9391 16 9.92172 15.5786 9.17157 14.8284C8.42143 14.0783 8 13.0609 8 12C8 10.9391 8.42143 9.92172 9.17157 9.17157C9.92172 8.42143 10.9391 8 12 8C13.0609 8 14.0783 8.42143 14.8284 9.17157C15.5786 9.92172 16 10.9391 16 12Z" fill="#AFAFAF"/>
<path d="M0 12.5C0 12.5 4.5 4 12 4C19.5 4 24 12.5 24 12.5C24 12.5 19.5 21 12 21C4.5 21 0 12.5 0 12.5ZM12 17.9091C13.3924 17.9091 14.7277 17.3392 15.7123 16.3248C16.6969 15.3104 17.25 13.9346 17.25 12.5C17.25 11.0654 16.6969 9.6896 15.7123 8.6752C14.7277 7.66079 13.3924 7.09091 12 7.09091C10.6076 7.09091 9.27226 7.66079 8.28769 8.6752C7.30312 9.6896 6.75 11.0654 6.75 12.5C6.75 13.9346 7.30312 15.3104 8.28769 16.3248C9.27226 17.3392 10.6076 17.9091 12 17.9091Z" fill="#AFAFAF"/>
</svg>
